{
	"patcher" : 	{
		"fileversion" : 1,
		"appversion" : 		{
			"major" : 9,
			"minor" : 0,
			"revision" : 7,
			"architecture" : "x64",
			"modernui" : 1
		}
,
		"classnamespace" : "box",
		"rect" : [ 187.0, 102.0, 1482.0, 833.0 ],
		"gridsize" : [ 15.0, 15.0 ],
		"boxes" : [ 			{
				"box" : 				{
					"id" : "obj-71",
					"maxclass" : "toggle",
					"numinlets" : 1,
					"numoutlets" : 1,
					"outlettype" : [ "int" ],
					"parameter_enable" : 0,
					"patching_rect" : [ 852.0, 156.0, 24.0, 24.0 ]
				}

			}
, 			{
				"box" : 				{
					"id" : "obj-67",
					"maxclass" : "toggle",
					"numinlets" : 1,
					"numoutlets" : 1,
					"outlettype" : [ "int" ],
					"parameter_enable" : 0,
					"patching_rect" : [ 700.0, 156.0, 24.0, 24.0 ]
				}

			}
, 			{
				"box" : 				{
					"id" : "obj-66",
					"maxclass" : "toggle",
					"numinlets" : 1,
					"numoutlets" : 1,
					"outlettype" : [ "int" ],
					"parameter_enable" : 0,
					"patching_rect" : [ 548.0, 156.0, 24.0, 24.0 ]
				}

			}
, 			{
				"box" : 				{
					"id" : "obj-65",
					"maxclass" : "toggle",
					"numinlets" : 1,
					"numoutlets" : 1,
					"outlettype" : [ "int" ],
					"parameter_enable" : 0,
					"patching_rect" : [ 394.0, 156.0, 24.0, 24.0 ]
				}

			}
, 			{
				"box" : 				{
					"id" : "obj-55",
					"maxclass" : "message",
					"numinlets" : 2,
					"numoutlets" : 1,
					"outlettype" : [ "" ],
					"patching_rect" : [ 1062.0, 85.0, 29.5, 22.0 ],
					"text" : "0"
				}

			}
, 			{
				"box" : 				{
					"format" : 6,
					"id" : "obj-48",
					"maxclass" : "flonum",
					"maximum" : 4.0,
					"minimum" : 0.0,
					"numinlets" : 1,
					"numoutlets" : 2,
					"outlettype" : [ "", "bang" ],
					"parameter_enable" : 0,
					"patching_rect" : [ 579.0, 299.0, 50.0, 22.0 ]
				}

			}
, 			{
				"box" : 				{
					"id" : "obj-38",
					"maxclass" : "toggle",
					"numinlets" : 1,
					"numoutlets" : 1,
					"outlettype" : [ "int" ],
					"parameter_enable" : 0,
					"patching_rect" : [ 137.0, 93.0, 24.0, 24.0 ]
				}

			}
, 			{
				"box" : 				{
					"bgcolor" : [ 0.33, 0.33, 0.33, 1.0 ],
					"id" : "obj-25",
					"margins" : [ 1.0, 0.0, 1.0, 0.0 ],
					"maxclass" : "plot~",
					"numinlets" : 1,
					"numoutlets" : 1,
					"numpoints" : 441,
					"outlettype" : [ "" ],
					"patching_rect" : [ 1141.0, 491.0, 276.0, 219.0 ],
					"prototypename" : "Audio Scope - Light",
					"subplots" : [ 						{
							"color" : [ 0.100000001490116, 0.899999976158142, 0.100000001490116, 1.0 ],
							"thickness" : 1.200000047683716,
							"point_style" : "none",
							"line_style" : "lines",
							"number_style" : "none",
							"filter" : "none",
							"domain_start" : 0.0,
							"domain_end" : 1.0,
							"domain_style" : "linear",
							"domain_markers" : [ 0.0, 0.125, 0.25, 0.375, 0.5, 0.625, 0.75, 0.875, 1.0 ],
							"domain_labels" : [  ],
							"range_start" : -1.0,
							"range_end" : 1.0,
							"range_style" : "linear",
							"range_markers" : [ -0.5, 0.0, 0.5 ],
							"range_labels" : [  ],
							"origin_x" : 0.0,
							"origin_y" : 0.0
						}
 ]
				}

			}
, 			{
				"box" : 				{
					"format" : 6,
					"id" : "obj-72",
					"maxclass" : "flonum",
					"numinlets" : 1,
					"numoutlets" : 2,
					"outlettype" : [ "", "bang" ],
					"parameter_enable" : 0,
					"patching_rect" : [ 137.0, 124.0, 50.0, 22.0 ]
				}

			}
, 			{
				"box" : 				{
					"id" : "obj-70",
					"maxclass" : "newobj",
					"numinlets" : 2,
					"numoutlets" : 1,
					"outlettype" : [ "signal" ],
					"patching_rect" : [ 73.0, 162.0, 83.0, 22.0 ],
					"text" : "*~ 0.01"
				}

			}
, 			{
				"box" : 				{
					"format" : 6,
					"id" : "obj-68",
					"maxclass" : "flonum",
					"maximum" : 6.0,
					"minimum" : -20.0,
					"numinlets" : 1,
					"numoutlets" : 2,
					"outlettype" : [ "", "bang" ],
					"parameter_enable" : 0,
					"patching_rect" : [ 1197.0, 303.0, 50.0, 22.0 ]
				}

			}
, 			{
				"box" : 				{
					"id" : "obj-69",
					"maxclass" : "message",
					"numinlets" : 2,
					"numoutlets" : 1,
					"outlettype" : [ "" ],
					"patching_rect" : [ 1197.0, 350.0, 64.0, 22.0 ],
					"text" : "j_GAIN $1"
				}

			}
, 			{
				"box" : 				{
					"fontface" : 0,
					"fontname" : "Arial",
					"fontsize" : 12.0,
					"id" : "obj-63",
					"maxclass" : "number~",
					"mode" : 2,
					"numdecimalplaces" : 15,
					"numinlets" : 2,
					"numoutlets" : 2,
					"outlettype" : [ "signal", "float" ],
					"patching_rect" : [ 955.0, 491.0, 93.0, 22.0 ],
					"sig" : 0.0
				}

			}
, 			{
				"box" : 				{
					"fontface" : 0,
					"fontname" : "Arial",
					"fontsize" : 12.0,
					"id" : "obj-62",
					"maxclass" : "number~",
					"mode" : 2,
					"numdecimalplaces" : 15,
					"numinlets" : 2,
					"numoutlets" : 2,
					"outlettype" : [ "signal", "float" ],
					"patching_rect" : [ 267.0, 486.0, 92.0, 22.0 ],
					"sig" : 0.0
				}

			}
, 			{
				"box" : 				{
					"format" : 6,
					"id" : "obj-61",
					"maxclass" : "flonum",
					"maximum" : 12.0,
					"minimum" : -12.0,
					"numinlets" : 1,
					"numoutlets" : 2,
					"outlettype" : [ "", "bang" ],
					"parameter_enable" : 0,
					"patching_rect" : [ 1135.0, 303.0, 50.0, 22.0 ]
				}

			}
, 			{
				"box" : 				{
					"id" : "obj-58",
					"maxclass" : "message",
					"numinlets" : 2,
					"numoutlets" : 1,
					"outlettype" : [ "" ],
					"patching_rect" : [ 1135.0, 350.0, 58.0, 22.0 ],
					"text" : "i_TILT $1"
				}

			}
, 			{
				"box" : 				{
					"format" : 6,
					"id" : "obj-53",
					"maxclass" : "flonum",
					"maximum" : 16.0,
					"minimum" : 1.0,
					"numinlets" : 1,
					"numoutlets" : 2,
					"outlettype" : [ "", "bang" ],
					"parameter_enable" : 0,
					"patching_rect" : [ 975.0, 303.0, 50.0, 22.0 ]
				}

			}
, 			{
				"box" : 				{
					"id" : "obj-35",
					"maxclass" : "message",
					"numinlets" : 2,
					"numoutlets" : 1,
					"outlettype" : [ "" ],
					"patching_rect" : [ 975.0, 350.0, 65.0, 22.0 ],
					"text" : "g_BITS $1"
				}

			}
, 			{
				"box" : 				{
					"id" : "obj-27",
					"maxclass" : "toggle",
					"numinlets" : 1,
					"numoutlets" : 1,
					"outlettype" : [ "int" ],
					"parameter_enable" : 0,
					"patching_rect" : [ 1048.0, 303.0, 24.0, 24.0 ]
				}

			}
, 			{
				"box" : 				{
					"id" : "obj-33",
					"maxclass" : "message",
					"numinlets" : 2,
					"numoutlets" : 1,
					"outlettype" : [ "" ],
					"patching_rect" : [ 1048.0, 350.0, 83.0, 22.0 ],
					"presentation_linecount" : 2,
					"text" : "h_BITSON $1"
				}

			}
, 			{
				"box" : 				{
					"format" : 6,
					"id" : "obj-54",
					"maxclass" : "flonum",
					"numinlets" : 1,
					"numoutlets" : 2,
					"outlettype" : [ "", "bang" ],
					"parameter_enable" : 0,
					"patching_rect" : [ 73.0, 85.0, 50.0, 22.0 ]
				}

			}
, 			{
				"box" : 				{
					"id" : "obj-51",
					"maxclass" : "newobj",
					"numinlets" : 2,
					"numoutlets" : 1,
					"outlettype" : [ "signal" ],
					"patching_rect" : [ 73.0, 124.0, 60.0, 22.0 ],
					"text" : "cycle~ 60"
				}

			}
, 			{
				"box" : 				{
					"id" : "obj-24",
					"maxclass" : "meter~",
					"numinlets" : 1,
					"numoutlets" : 1,
					"outlettype" : [ "float" ],
					"patching_rect" : [ 968.0, 475.0, 80.0, 13.0 ]
				}

			}
, 			{
				"box" : 				{
					"id" : "obj-23",
					"maxclass" : "meter~",
					"numinlets" : 1,
					"numoutlets" : 1,
					"outlettype" : [ "float" ],
					"patching_rect" : [ 279.0, 468.0, 80.0, 13.0 ]
				}

			}
, 			{
				"box" : 				{
					"id" : "obj-21",
					"maxclass" : "message",
					"numinlets" : 2,
					"numoutlets" : 1,
					"outlettype" : [ "" ],
					"patching_rect" : [ 1188.0, 85.0, 29.5, 22.0 ],
					"text" : "4"
				}

			}
, 			{
				"box" : 				{
					"id" : "obj-17",
					"maxclass" : "message",
					"numinlets" : 2,
					"numoutlets" : 1,
					"outlettype" : [ "" ],
					"patching_rect" : [ 1156.0, 85.0, 29.5, 22.0 ],
					"text" : "3"
				}

			}
, 			{
				"box" : 				{
					"id" : "obj-14",
					"maxclass" : "message",
					"numinlets" : 2,
					"numoutlets" : 1,
					"outlettype" : [ "" ],
					"patching_rect" : [ 1125.0, 85.0, 29.5, 22.0 ],
					"text" : "2"
				}

			}
, 			{
				"box" : 				{
					"id" : "obj-8",
					"maxclass" : "message",
					"numinlets" : 2,
					"numoutlets" : 1,
					"outlettype" : [ "" ],
					"patching_rect" : [ 1093.0, 85.0, 29.5, 22.0 ],
					"text" : "1"
				}

			}
, 			{
				"box" : 				{
					"id" : "obj-52",
					"maxclass" : "toggle",
					"numinlets" : 1,
					"numoutlets" : 1,
					"outlettype" : [ "int" ],
					"parameter_enable" : 0,
					"patching_rect" : [ 754.0, 299.0, 24.0, 24.0 ]
				}

			}
, 			{
				"box" : 				{
					"id" : "obj-50",
					"maxclass" : "message",
					"numinlets" : 2,
					"numoutlets" : 1,
					"outlettype" : [ "" ],
					"patching_rect" : [ 754.0, 346.0, 82.0, 22.0 ],
					"text" : "f_BYPASS $1"
				}

			}
, 			{
				"box" : 				{
					"basictuning" : 440,
					"data" : 					{
						"clips" : [ 							{
								"absolutepath" : "jongly.aif",
								"filename" : "jongly.aif",
								"filekind" : "audiofile",
								"id" : "u110010879",
								"loop" : 1,
								"content_state" : 								{
									"loop" : 1
								}

							}
 ]
					}
,
					"followglobaltempo" : 0,
					"formantcorrection" : 0,
					"id" : "obj-36",
					"maxclass" : "playlist~",
					"mode" : "basic",
					"numinlets" : 1,
					"numoutlets" : 5,
					"originallength" : [ 0.0, "ticks" ],
					"originaltempo" : 120.0,
					"outlettype" : [ "signal", "signal", "signal", "", "dictionary" ],
					"parameter_enable" : 0,
					"patching_rect" : [ 852.0, 187.0, 150.0, 30.0 ],
					"pitchcorrection" : 0,
					"quality" : "basic",
					"saved_attribute_attributes" : 					{
						"candicane2" : 						{
							"expression" : ""
						}
,
						"candicane3" : 						{
							"expression" : ""
						}
,
						"candicane4" : 						{
							"expression" : ""
						}
,
						"candicane5" : 						{
							"expression" : ""
						}
,
						"candicane6" : 						{
							"expression" : ""
						}
,
						"candicane7" : 						{
							"expression" : ""
						}
,
						"candicane8" : 						{
							"expression" : ""
						}

					}
,
					"timestretch" : [ 0 ]
				}

			}
, 			{
				"box" : 				{
					"basictuning" : 440,
					"data" : 					{
						"clips" : [ 							{
								"absolutepath" : "eroica.aiff",
								"filename" : "eroica.aiff",
								"filekind" : "audiofile",
								"id" : "u296010872",
								"loop" : 1,
								"content_state" : 								{
									"loop" : 1
								}

							}
 ]
					}
,
					"followglobaltempo" : 0,
					"formantcorrection" : 0,
					"id" : "obj-34",
					"maxclass" : "playlist~",
					"mode" : "basic",
					"numinlets" : 1,
					"numoutlets" : 5,
					"originallength" : [ 0.0, "ticks" ],
					"originaltempo" : 120.0,
					"outlettype" : [ "signal", "signal", "signal", "", "dictionary" ],
					"parameter_enable" : 0,
					"patching_rect" : [ 700.0, 187.0, 150.0, 30.0 ],
					"pitchcorrection" : 0,
					"quality" : "basic",
					"saved_attribute_attributes" : 					{
						"candicane2" : 						{
							"expression" : ""
						}
,
						"candicane3" : 						{
							"expression" : ""
						}
,
						"candicane4" : 						{
							"expression" : ""
						}
,
						"candicane5" : 						{
							"expression" : ""
						}
,
						"candicane6" : 						{
							"expression" : ""
						}
,
						"candicane7" : 						{
							"expression" : ""
						}
,
						"candicane8" : 						{
							"expression" : ""
						}

					}
,
					"timestretch" : [ 0 ]
				}

			}
, 			{
				"box" : 				{
					"basictuning" : 440,
					"data" : 					{
						"clips" : [ 							{
								"absolutepath" : "drumLoop.aif",
								"filename" : "drumLoop.aif",
								"filekind" : "audiofile",
								"id" : "u236010865",
								"loop" : 1,
								"content_state" : 								{
									"loop" : 1
								}

							}
 ]
					}
,
					"followglobaltempo" : 0,
					"formantcorrection" : 0,
					"id" : "obj-32",
					"maxclass" : "playlist~",
					"mode" : "basic",
					"numinlets" : 1,
					"numoutlets" : 5,
					"originallength" : [ 0.0, "ticks" ],
					"originaltempo" : 120.0,
					"outlettype" : [ "signal", "signal", "signal", "", "dictionary" ],
					"parameter_enable" : 0,
					"patching_rect" : [ 548.0, 187.0, 150.0, 30.0 ],
					"pitchcorrection" : 0,
					"quality" : "basic",
					"saved_attribute_attributes" : 					{
						"candicane2" : 						{
							"expression" : ""
						}
,
						"candicane3" : 						{
							"expression" : ""
						}
,
						"candicane4" : 						{
							"expression" : ""
						}
,
						"candicane5" : 						{
							"expression" : ""
						}
,
						"candicane6" : 						{
							"expression" : ""
						}
,
						"candicane7" : 						{
							"expression" : ""
						}
,
						"candicane8" : 						{
							"expression" : ""
						}

					}
,
					"timestretch" : [ 0 ]
				}

			}
, 			{
				"box" : 				{
					"basictuning" : 440,
					"data" : 					{
						"clips" : [ 							{
								"absolutepath" : "cherokee.aif",
								"filename" : "cherokee.aif",
								"filekind" : "audiofile",
								"id" : "u689010858",
								"loop" : 1,
								"content_state" : 								{
									"loop" : 1
								}

							}
 ]
					}
,
					"followglobaltempo" : 0,
					"formantcorrection" : 0,
					"id" : "obj-30",
					"maxclass" : "playlist~",
					"mode" : "basic",
					"numinlets" : 1,
					"numoutlets" : 5,
					"originallength" : [ 0.0, "ticks" ],
					"originaltempo" : 120.0,
					"outlettype" : [ "signal", "signal", "signal", "", "dictionary" ],
					"parameter_enable" : 0,
					"patching_rect" : [ 394.0, 187.0, 150.0, 30.0 ],
					"pitchcorrection" : 0,
					"quality" : "basic",
					"saved_attribute_attributes" : 					{
						"candicane2" : 						{
							"expression" : ""
						}
,
						"candicane3" : 						{
							"expression" : ""
						}
,
						"candicane4" : 						{
							"expression" : ""
						}
,
						"candicane5" : 						{
							"expression" : ""
						}
,
						"candicane6" : 						{
							"expression" : ""
						}
,
						"candicane7" : 						{
							"expression" : ""
						}
,
						"candicane8" : 						{
							"expression" : ""
						}

					}
,
					"timestretch" : [ 0 ]
				}

			}
, 			{
				"box" : 				{
					"format" : 6,
					"id" : "obj-26",
					"maxclass" : "flonum",
					"maximum" : 6.0,
					"minimum" : -20.0,
					"numinlets" : 1,
					"numoutlets" : 2,
					"outlettype" : [ "", "bang" ],
					"parameter_enable" : 0,
					"patching_rect" : [ 663.0, 299.0, 50.0, 22.0 ]
				}

			}
, 			{
				"box" : 				{
					"id" : "obj-22",
					"maxclass" : "message",
					"numinlets" : 2,
					"numoutlets" : 1,
					"outlettype" : [ "" ],
					"patching_rect" : [ 663.0, 346.0, 87.0, 22.0 ],
					"text" : "e_CEILING $1"
				}

			}
, 			{
				"box" : 				{
					"basictuning" : 440,
					"data" : 					{
						"clips" : [ 							{
								"absolutepath" : "vibes-a1.aif",
								"filename" : "vibes-a1.aif",
								"filekind" : "audiofile",
								"id" : "u754009076",
								"loop" : 1,
								"content_state" : 								{
									"loop" : 1,
									"speed" : 1
								}

							}
 ]
					}
,
					"followglobaltempo" : 0,
					"formantcorrection" : 0,
					"id" : "obj-20",
					"maxclass" : "playlist~",
					"mode" : "basic",
					"numinlets" : 1,
					"numoutlets" : 5,
					"originallength" : [ 0.0, "ticks" ],
					"originaltempo" : 120.0,
					"outlettype" : [ "signal", "signal", "signal", "", "dictionary" ],
					"parameter_enable" : 0,
					"patching_rect" : [ 237.0, 187.0, 150.0, 30.0 ],
					"pitchcorrection" : 0,
					"quality" : "basic",
					"saved_attribute_attributes" : 					{
						"candicane2" : 						{
							"expression" : ""
						}
,
						"candicane3" : 						{
							"expression" : ""
						}
,
						"candicane4" : 						{
							"expression" : ""
						}
,
						"candicane5" : 						{
							"expression" : ""
						}
,
						"candicane6" : 						{
							"expression" : ""
						}
,
						"candicane7" : 						{
							"expression" : ""
						}
,
						"candicane8" : 						{
							"expression" : ""
						}

					}
,
					"timestretch" : [ 0 ]
				}

			}
, 			{
				"box" : 				{
					"id" : "obj-1",
					"maxclass" : "message",
					"numinlets" : 2,
					"numoutlets" : 1,
					"outlettype" : [ "" ],
					"patching_rect" : [ 579.0, 346.0, 75.0, 22.0 ],
					"text" : "d_MODE $1"
				}

			}
, 			{
				"box" : 				{
					"id" : "obj-19",
					"logfreq" : 1,
					"maxclass" : "spectroscope~",
					"numinlets" : 2,
					"numoutlets" : 1,
					"outlettype" : [ "" ],
					"patching_rect" : [ 927.0, 544.0, 139.0, 114.0 ]
				}

			}
, 			{
				"box" : 				{
					"id" : "obj-16",
					"maxclass" : "newobj",
					"numinlets" : 2,
					"numoutlets" : 1,
					"outlettype" : [ "signal" ],
					"patching_rect" : [ 786.0, 584.0, 47.0, 22.0 ],
					"text" : "gate~"
				}

			}
, 			{
				"box" : 				{
					"id" : "obj-18",
					"maxclass" : "newobj",
					"numinlets" : 2,
					"numoutlets" : 1,
					"outlettype" : [ "signal" ],
					"patching_rect" : [ 786.0, 634.0, 79.0, 22.0 ],
					"text" : "*~ 0.01"
				}

			}
, 			{
				"box" : 				{
					"id" : "obj-13",
					"maxclass" : "comment",
					"numinlets" : 1,
					"numoutlets" : 0,
					"patching_rect" : [ 511.0, 276.0, 39.0, 20.0 ],
					"text" : "0 - 1"
				}

			}
, 			{
				"box" : 				{
					"id" : "obj-10",
					"maxclass" : "comment",
					"numinlets" : 1,
					"numoutlets" : 0,
					"patching_rect" : [ 421.0, 276.0, 39.0, 20.0 ],
					"text" : "1 - 50"
				}

			}
, 			{
				"box" : 				{
					"id" : "obj-9",
					"maxclass" : "comment",
					"numinlets" : 1,
					"numoutlets" : 0,
					"patching_rect" : [ 334.0, 276.0, 33.0, 20.0 ],
					"text" : "0 - 1"
				}

			}
, 			{
				"box" : 				{
					"id" : "obj-6",
					"maxclass" : "message",
					"numinlets" : 2,
					"numoutlets" : 1,
					"outlettype" : [ "" ],
					"patching_rect" : [ 220.0, 89.0, 68.0, 22.0 ],
					"text" : "exportcode"
				}

			}
, 			{
				"box" : 				{
					"id" : "obj-101",
					"maxclass" : "message",
					"numinlets" : 2,
					"numoutlets" : 1,
					"outlettype" : [ "" ],
					"patching_rect" : [ 325.0, 346.0, 90.0, 22.0 ],
					"text" : "a_DRYWET $1"
				}

			}
, 			{
				"box" : 				{
					"format" : 6,
					"id" : "obj-95",
					"maxclass" : "flonum",
					"maximum" : 1.0,
					"minimum" : 0.0,
					"numinlets" : 1,
					"numoutlets" : 2,
					"outlettype" : [ "", "bang" ],
					"parameter_enable" : 0,
					"patching_rect" : [ 325.0, 300.0, 50.0, 22.0 ]
				}

			}
, 			{
				"box" : 				{
					"format" : 6,
					"id" : "obj-93",
					"maxclass" : "flonum",
					"maximum" : 1.0,
					"minimum" : 0.0,
					"numinlets" : 1,
					"numoutlets" : 2,
					"outlettype" : [ "", "bang" ],
					"parameter_enable" : 0,
					"patching_rect" : [ 506.0, 299.0, 50.0, 22.0 ]
				}

			}
, 			{
				"box" : 				{
					"format" : 6,
					"id" : "obj-87",
					"maxclass" : "flonum",
					"maximum" : 20.0,
					"minimum" : 0.0,
					"numinlets" : 1,
					"numoutlets" : 2,
					"outlettype" : [ "", "bang" ],
					"parameter_enable" : 0,
					"patching_rect" : [ 421.0, 299.0, 50.0, 22.0 ]
				}

			}
, 			{
				"box" : 				{
					"id" : "obj-15",
					"maxclass" : "toggle",
					"numinlets" : 1,
					"numoutlets" : 1,
					"outlettype" : [ "int" ],
					"parameter_enable" : 0,
					"patching_rect" : [ 500.0, 514.0, 24.0, 24.0 ]
				}

			}
, 			{
				"box" : 				{
					"id" : "obj-12",
					"maxclass" : "newobj",
					"numinlets" : 2,
					"numoutlets" : 1,
					"outlettype" : [ "signal" ],
					"patching_rect" : [ 209.0, 584.0, 47.0, 22.0 ],
					"text" : "gate~"
				}

			}
, 			{
				"box" : 				{
					"format" : 6,
					"id" : "obj-44",
					"maxclass" : "flonum",
					"maximum" : 1.0,
					"minimum" : 0.0,
					"numinlets" : 1,
					"numoutlets" : 2,
					"outlettype" : [ "", "bang" ],
					"parameter_enable" : 0,
					"patching_rect" : [ 500.0, 584.0, 50.0, 22.0 ]
				}

			}
, 			{
				"box" : 				{
					"fontsize" : 47.0,
					"id" : "obj-39",
					"maxclass" : "comment",
					"numinlets" : 1,
					"numoutlets" : 0,
					"patching_rect" : [ 1175.0, 413.0, 242.0, 59.0 ],
					"text" : "gen~ distor"
				}

			}
, 			{
				"box" : 				{
					"id" : "obj-11",
					"maxclass" : "message",
					"numinlets" : 2,
					"numoutlets" : 1,
					"outlettype" : [ "" ],
					"patching_rect" : [ 506.0, 346.0, 55.0, 22.0 ],
					"text" : "c_DC $1"
				}

			}
, 			{
				"box" : 				{
					"id" : "obj-7",
					"maxclass" : "message",
					"numinlets" : 2,
					"numoutlets" : 1,
					"outlettype" : [ "" ],
					"patching_rect" : [ 421.0, 346.0, 75.0, 22.0 ],
					"text" : "b_DRIVE $1"
				}

			}
, 			{
				"box" : 				{
					"id" : "obj-5",
					"maxclass" : "ezdac~",
					"numinlets" : 2,
					"numoutlets" : 0,
					"patching_rect" : [ 493.0, 718.0, 45.0, 45.0 ]
				}

			}
, 			{
				"box" : 				{
					"id" : "obj-4",
					"maxclass" : "newobj",
					"numinlets" : 2,
					"numoutlets" : 1,
					"outlettype" : [ "signal" ],
					"patching_rect" : [ 209.0, 635.0, 79.0, 22.0 ],
					"text" : "*~ 0.01"
				}

			}
, 			{
				"box" : 				{
					"id" : "obj-3",
					"logfreq" : 1,
					"maxclass" : "spectroscope~",
					"numinlets" : 2,
					"numoutlets" : 1,
					"outlettype" : [ "" ],
					"patching_rect" : [ 45.0, 544.0, 139.0, 114.0 ]
				}

			}
, 			{
				"box" : 				{
					"id" : "obj-2",
					"maxclass" : "newobj",
					"numinlets" : 2,
					"numoutlets" : 2,
					"outlettype" : [ "signal", "signal" ],
					"patcher" : 					{
						"fileversion" : 1,
						"appversion" : 						{
							"major" : 9,
							"minor" : 0,
							"revision" : 7,
							"architecture" : "x64",
							"modernui" : 1
						}
,
						"classnamespace" : "dsp.gen",
						"rect" : [ 389.0, 87.0, 1265.0, 903.0 ],
						"gridsize" : [ 15.0, 15.0 ],
						"boxes" : [ 							{
								"box" : 								{
									"id" : "obj-5",
									"maxclass" : "newobj",
									"numinlets" : 1,
									"numoutlets" : 0,
									"patching_rect" : [ 840.0, 842.0, 35.0, 22.0 ],
									"text" : "out 2"
								}

							}
, 							{
								"box" : 								{
									"id" : "obj-1",
									"maxclass" : "newobj",
									"numinlets" : 0,
									"numoutlets" : 1,
									"outlettype" : [ "" ],
									"patching_rect" : [ 50.0, 14.0, 28.0, 22.0 ],
									"text" : "in 1"
								}

							}
, 							{
								"box" : 								{
									"id" : "obj-2",
									"maxclass" : "newobj",
									"numinlets" : 0,
									"numoutlets" : 1,
									"outlettype" : [ "" ],
									"patching_rect" : [ 840.0, 14.0, 28.0, 22.0 ],
									"text" : "in 2"
								}

							}
, 							{
								"box" : 								{
									"code" : "// =============================================================================\n// MULTI-ALGORITHM DISTORTION WITH CONTINUOUS MORPHING\n// =============================================================================\n// Plugin de distorsión con 10 algoritmos diferentes y morphing continuo\n// Incluye filtros tilt pre/post, bit crusher opcional y controles completos\n// =============================================================================\n\n// -----------------------------------------------------------------------------\n// FUNCIONES DE DISTORSIÓN\n// -----------------------------------------------------------------------------\n\n// Arraya Distortion - Basado en la fórmula de Arraya\narry(inl, inr, cell) {\n    l = (((3 * inl)) / 2) * ((1 - ((pow(inl, 2)) / 3)));\n    r = (((3 * inr)) / 2) * ((1 - ((pow(inr, 2)) / 3)));\n    l_out = clip(l * 0.5, -cell, cell);\n    r_out = clip(r * 0.5, -cell, cell);\n    return l_out, r_out;\n}\n\n// Tangente Hiperbólica - Distorsión suave tipo saturación de cinta\ntangenteHiperbolica(inl, inr, dr, dc, cell) {\n    l = clip((inl * dr) + (dc * 0.01), -cell, cell);\n    r = clip((inr * dr) + (dc * 0.01), -cell, cell);\n    l_out = (tanh(l)) / (tanh(dr));\n    r_out = (tanh(r)) / (tanh(dr));\n    return l_out, r_out;\n}\n\n// Sigmoid - Curva en S para saturación suave\nsigmoid(inl, inr, dr, dc, cell) {\n    factor = (-1) * (dr + dc);\n    l = (2 * (1 / (1 + exp(factor * inl)))) - 1;\n    r = (2 * (1 / (1 + exp(factor * inr)))) - 1;\n    return l, r;\n}\n\n// Rectificador Full Wave - Valor absoluto con ganancia\nrectF(inl, inr, dr, cell) {\n    l = clip(abs((inl * dr) * 0.5), -cell, cell);\n    r = clip(abs((inr * dr) * 0.5), -cell, cell);\n    return l, r;\n}\n\n// ATSQ - Arctangente + Raíz cuadrada para distorsión compleja\natsq(inl, inr, dr, dc, cell) {\n    factor = 0.9 * ((inl * dr) + (dc * 0.1));\n    l = ((2.5 * atan(factor)) + (2.5 * sqrt(1 - pow(factor, 2)))) - 2.5;\n    \n    factor_r = 0.9 * ((inr * dr) + (dc * 0.1));\n    r = ((2.5 * atan(factor_r)) + (2.5 * sqrt(1 - pow(factor_r, 2)))) - 2.5;\n    \n    l_out = clip(l, -cell, cell);\n    r_out = clip(r, -cell, cell);\n    return l_out, r_out;\n}\n\n// Rectificador Half Wave - Solo valores positivos\nrectH(inl, inr, dr, cell) {\n    l_positive = max(inl, 0);\n    r_positive = max(inr, 0);\n    l = clip((l_positive * dr) * 0.5, -cell, cell);\n    r = clip((r_positive * dr) * 0.5, -cell, cell);\n    return l, r;\n}\n\n// Soft Clipping - Saturación suave con tangente hiperbólica\nsoftclip(inl, inr, cell) {\n    l = clip(inl, -cell, cell);\n    r = clip(inr, -cell, cell);\n    l_out = (2 / pi) * tanh(l);\n    r_out = (2 / pi) * tanh(r);\n    return l_out, r_out;\n}\n\n// Fuzz Exponencial 1 - Distorsión tipo fuzz con curva exponencial\nfuzzExp1(inl, inr, dr, dc, cell) {\n    signl = sign(inl);\n    signr = sign(inr);\n    \n    drive_factor = (dr / 6) + (dc * 0.01);\n    l = signl * ((1 - exp(-abs(inl * (dr / 6) + (dc * 0.01)))) / \n                 (1 - exp(-drive_factor)));\n    r = signr * ((1 - exp(-abs(inr * (dr / 6) + (dc * 0.01)))) / \n                 (1 - exp(-drive_factor)));\n    \n    l_out = clip(l, -cell, cell);\n    r_out = clip(r, -cell, cell);\n    return l_out, r_out;\n}\n\n// Fuzz Exponencial 2 - Variante más agresiva del fuzz\nfuzzExp2(inl, inr, dr, dc, cell) {\n    signl = sign(inl);\n    signr = sign(inr);\n    \n    l = inl * 0.1;\n    r = inr * 0.1;\n    \n    // Nota: exp(0) - 1 = 0, esto podría necesitar revisión\n    l_out = signl * ((-l * dr + (dc * 0.005))) * (1 - (exp(abs(l)) / 0));\n    r_out = signr * ((-r * dr + (dc * 0.005))) * (1 - (exp(abs(r)) / 0));\n    \n    l_clipped = clip(l_out, -cell, cell);\n    r_clipped = clip(r_out, -cell, cell);\n    return l_clipped, r_clipped;\n}\n\n// Bit Crusher - Reduce la resolución de bits\nbitCrusher(inl, inr, bits) {\n    steps = pow(2, bits) - 1;\n    invSteps = 1 / steps;\n    l = ceil(inl * steps) * invSteps;\n    r = ceil(inr * steps) * invSteps;\n    return l, r;\n}\n\n// -----------------------------------------------------------------------------\n// PARÁMETROS\n// -----------------------------------------------------------------------------\nParam a_DRYWET(1, min=0, default=1, max=1);\nParam b_DRIVE(1, min=1, default=1, max=50);\nParam c_DC(0, min=0, default=0, max=1);\nParam d_MODE(1, min=0, default=0, max=9);  // Ahora es continuo 0-9\nParam e_CEILING(0, min=-20, default=0, max=6);\nParam f_BYPASS(0, min=0, default=0, max=1);\nParam g_BITS(24, min=1, default=24, max=24);\nParam h_BITSON(0, min=0, default=0, max=1);\nParam i_TILT(0, min=-12, default=0, max=12);\nParam j_GAIN(0, min=-20, default=0, max=6);\n\n// -----------------------------------------------------------------------------\n// HISTORIALES PARA SMOOTHING\n// -----------------------------------------------------------------------------\nHistory h_drive(0);\nHistory h_dc(0);\nHistory h_drywet(0);\nHistory h_gain(0);\nHistory h_bits(0);\nHistory h_bitson(0);\nHistory h_tilt(0);\n\n// Historiales para filtros Tilt (4 por canal = 8 total)\nHistory tilt_l1(0), tilt_l2(0), tilt_l3(0), tilt_l4(0);\nHistory tilt_r1(0), tilt_r2(0), tilt_r3(0), tilt_r4(0);\n\n// -----------------------------------------------------------------------------\n// PROCESAMIENTO PRINCIPAL\n// -----------------------------------------------------------------------------\n\n// Entrada\nl_in = in1;\nr_in = in2;\n\n// Smoothing de parámetros (factor 0.999 para suavizado)\nsmooth_factor = 0.999;\nh_drive = h_drive * smooth_factor + b_DRIVE * (1 - smooth_factor);\ndrive = h_drive;\nh_dc = h_dc * smooth_factor + c_DC * (1 - smooth_factor);\ndc = h_dc;\nh_drywet = h_drywet * smooth_factor + a_DRYWET * (1 - smooth_factor);\ndrywet = h_drywet;\nh_gain = h_gain * smooth_factor + j_GAIN * (1 - smooth_factor);\ngain_db = h_gain;\nh_bits = h_bits * smooth_factor + g_BITS * (1 - smooth_factor);\nbits = h_bits;\nh_bitson = h_bitson * smooth_factor + h_BITSON * (1 - smooth_factor);\nbitson = h_bitson;\nh_tilt = h_tilt * smooth_factor + i_TILT * (1 - smooth_factor);\ntilt_db = h_tilt;\n\n// Conversiones\ngain_linear = dbtoa(gain_db);\nceiling = dbtoa(e_CEILING);\nbypass = 1 - f_BYPASS;\n\n// -----------------------------------------------------------------------------\n// FILTRO TILT PRE-DISTORSIÓN\n// -----------------------------------------------------------------------------\n// Implementación de filtro shelf high/low para ajustar el balance tonal\n\nfc = 800.0;  // Frecuencia central\nq = 0.7071;  // Factor Q (Butterworth)\n\n// Cálculo de coeficientes para Tilt\ntilt_gain = dbtoa(tilt_db);\nomega = (fc * twopi) / samplerate;\nsn = sin(omega);\ncs = cos(omega);\nA = sqrt(tilt_gain);\nbeta = sqrt((A * A + 1) / q - (A - 1) * (A - 1));\n\n// Coeficientes Low Shelf (boost/cut graves)\nb0_ls = 1 / ((A + 1) + (A - 1) * cs + beta * sn);\na0_ls = A * ((A + 1) - (A - 1) * cs + beta * sn) * b0_ls;\na1_ls = 2 * A * ((A - 1) - (A + 1) * cs) * b0_ls;\na2_ls = A * ((A + 1) - (A - 1) * cs - beta * sn) * b0_ls;\nb1_ls = -2 * ((A - 1) + (A + 1) * cs) * b0_ls;\nb2_ls = ((A + 1) + (A - 1) * cs - beta * sn) * b0_ls;\n\n// Aplicar Low Shelf a L\nl_ls = a0_ls * l_in + a1_ls * tilt_l2 + a2_ls * tilt_l1 - b1_ls * tilt_l4 - b2_ls * tilt_l3;\ntilt_l1 = tilt_l2;\ntilt_l2 = l_in;\ntilt_l3 = tilt_l4;\ntilt_l4 = l_ls;\n\n// Aplicar Low Shelf a R\nr_ls = a0_ls * r_in + a1_ls * tilt_r2 + a2_ls * tilt_r1 - b1_ls * tilt_r4 - b2_ls * tilt_r3;\ntilt_r1 = tilt_r2;\ntilt_r2 = r_in;\ntilt_r3 = tilt_r4;\ntilt_r4 = r_ls;\n\n// Coeficientes High Shelf (boost/cut agudos) - invertido para efecto tilt\nA_inv = sqrt(1/tilt_gain);\nbeta_hs = sqrt((A_inv * A_inv + 1) / q - (A_inv - 1) * (A_inv - 1));\n\nb0_hs = 1 / ((A_inv + 1) - (A_inv - 1) * cs + beta_hs * sn);\na0_hs = A_inv * ((A_inv + 1) + (A_inv - 1) * cs + beta_hs * sn) * b0_hs;\na1_hs = -2 * A_inv * ((A_inv - 1) + (A_inv + 1) * cs) * b0_hs;\na2_hs = A_inv * ((A_inv + 1) + (A_inv - 1) * cs - beta_hs * sn) * b0_hs;\nb1_hs = 2 * ((A_inv - 1) - (A_inv + 1) * cs) * b0_hs;\nb2_hs = ((A_inv + 1) - (A_inv - 1) * cs - beta_hs * sn) * b0_hs;\n\n// Reutilizamos los historiales tilt_l1-4 y tilt_r1-4 para el high shelf\nl_tilt = a0_hs * l_ls + a1_hs * tilt_l2 + a2_hs * tilt_l1 - b1_hs * tilt_l4 - b2_hs * tilt_l3;\nr_tilt = a0_hs * r_ls + a1_hs * tilt_r2 + a2_hs * tilt_r1 - b1_hs * tilt_r4 - b2_hs * tilt_r3;\n\n// -----------------------------------------------------------------------------\n// PROCESAMIENTO DE DISTORSIÓN CON MORPHING\n// -----------------------------------------------------------------------------\n\n// Calcular el factor de drive con DC offset\ndrive_factor = drive + dc * 0.9;\ndc_factor = dc * drive * 0.9;\n\n// Ejecutar TODOS los algoritmos\narry_l, arry_r = arry(l_tilt * drive_factor, r_tilt * drive_factor, ceiling);\ntanh_l, tanh_r = tangenteHiperbolica(l_tilt, r_tilt, drive, dc_factor, ceiling);\nsigm_l, sigm_r = sigmoid(l_tilt, r_tilt, drive, dc_factor, ceiling);\nrect_l, rect_r = rectF(l_tilt, r_tilt, drive, ceiling);\natsq_l, atsq_r = atsq(l_tilt, r_tilt, drive, dc_factor, ceiling);\nrecth_l, recth_r = rectH(l_tilt, r_tilt, drive, ceiling);\nsoft_l, soft_r = softclip(l_tilt * drive_factor, r_tilt * drive_factor, ceiling);\nfuzz1_l, fuzz1_r = fuzzExp1(l_tilt, r_tilt, drive, dc_factor, ceiling);\nfuzz2_l, fuzz2_r = fuzzExp2(l_tilt, r_tilt, drive, dc_factor, ceiling);\n\n// Sistema de morphing continuo entre algoritmos\n// d_MODE va de 0 a 9, permitiendo transiciones suaves\nmode = d_MODE;\n\n// Calculamos los pesos para cada algoritmo usando funciones de ventana\nw0 = max(0, 1 - abs(mode - 0));      // Arry\nw1 = max(0, 1 - abs(mode - 1));      // TanH\nw2 = max(0, 1 - abs(mode - 2));      // Sigmoid\nw3 = max(0, 1 - abs(mode - 3));      // RectF\nw4 = max(0, 1 - abs(mode - 4));      // ATSQ\nw5 = max(0, 1 - abs(mode - 5));      // RectH\nw6 = max(0, 1 - abs(mode - 6));      // Softclip\nw7 = max(0, 1 - abs(mode - 7));      // Fuzz1\nw8 = max(0, 1 - abs(mode - 8));      // Fuzz2\nw9 = max(0, 1 - abs(mode - 9));      // Bit reduction puro\n\n// Normalizar pesos para que sumen 1\nsum_weights = w0 + w1 + w2 + w3 + w4 + w5 + w6 + w7 + w8 + w9 + 0.0001;\nw0 /= sum_weights; w1 /= sum_weights; w2 /= sum_weights;\nw3 /= sum_weights; w4 /= sum_weights; w5 /= sum_weights;\nw6 /= sum_weights; w7 /= sum_weights; w8 /= sum_weights;\nw9 /= sum_weights;\n\n// Mezclar algoritmos según los pesos\ndist_l = arry_l * w0 + tanh_l * w1 + sigm_l * w2 + rect_l * w3 + \n         atsq_l * w4 + recth_l * w5 + soft_l * w6 + fuzz1_l * w7 + \n         fuzz2_l * w8 + l_tilt * w9;  // w9 es señal limpia para transición a bit crusher\n\ndist_r = arry_r * w0 + tanh_r * w1 + sigm_r * w2 + rect_r * w3 + \n         atsq_r * w4 + recth_r * w5 + soft_r * w6 + fuzz1_r * w7 + \n         fuzz2_r * w8 + r_tilt * w9;\n\n// DC Blocker después de distorsión\ndc_l = dcblock(dist_l);\ndc_r = dcblock(dist_r);\n\n// Aplicar ganancia de salida\ngained_l = dc_l * gain_linear;\ngained_r = dc_r * gain_linear;\n\n// Mezcla Dry/Wet\nmixed_l = mix(l_in, gained_l, drywet);\nmixed_r = mix(r_in, gained_r, drywet);\n\n// -----------------------------------------------------------------------------\n// BIT CRUSHER OPCIONAL\n// -----------------------------------------------------------------------------\nbit_l, bit_r = bitCrusher(mixed_l, mixed_r, bits);\nbc_l = dcblock(bit_l);\nbc_r = dcblock(bit_r);\n\n// Aplicar bit crusher según parámetro\nfinal_l = mix(mixed_l, bc_l, bitson);\nfinal_r = mix(mixed_r, bc_r, bitson);\n\n// -----------------------------------------------------------------------------\n// SALIDA FINAL CON BYPASS\n// -----------------------------------------------------------------------------\nout1 = mix(l_in, final_l, bypass);\nout2 = mix(r_in, final_r, bypass);",
									"fontface" : 0,
									"fontname" : "<Monospaced>",
									"fontsize" : 12.0,
									"id" : "obj-3",
									"maxclass" : "codebox",
									"numinlets" : 2,
									"numoutlets" : 2,
									"outlettype" : [ "", "" ],
									"patching_rect" : [ 50.0, 56.0, 809.0, 764.0 ]
								}

							}
, 							{
								"box" : 								{
									"id" : "obj-4",
									"maxclass" : "newobj",
									"numinlets" : 1,
									"numoutlets" : 0,
									"patching_rect" : [ 50.0, 842.0, 35.0, 22.0 ],
									"text" : "out 1"
								}

							}
 ],
						"lines" : [ 							{
								"patchline" : 								{
									"destination" : [ "obj-3", 0 ],
									"source" : [ "obj-1", 0 ]
								}

							}
, 							{
								"patchline" : 								{
									"destination" : [ "obj-3", 1 ],
									"source" : [ "obj-2", 0 ]
								}

							}
, 							{
								"patchline" : 								{
									"destination" : [ "obj-4", 0 ],
									"source" : [ "obj-3", 0 ]
								}

							}
, 							{
								"patchline" : 								{
									"destination" : [ "obj-5", 0 ],
									"source" : [ "obj-3", 1 ]
								}

							}
 ]
					}
,
					"patching_rect" : [ 237.0, 431.0, 711.5, 22.0 ],
					"saved_object_attributes" : 					{
						"autoexport" : 0,
						"exportfolder" : "Sequoia:/Users/jcb/JUCEProjects/JCBDisto/exported-code/"
					}
,
					"text" : "gen~ @title JCBDistortion @autoexport 0"
				}

			}
, 			{
				"box" : 				{
					"attr" : "speed",
					"id" : "obj-46",
					"maxclass" : "attrui",
					"numinlets" : 1,
					"numoutlets" : 1,
					"outlettype" : [ "" ],
					"parameter_enable" : 0,
					"patching_rect" : [ 237.0, 157.0, 150.0, 22.0 ]
				}

			}
, 			{
				"box" : 				{
					"attr" : "exportfolder",
					"id" : "obj-43",
					"maxclass" : "attrui",
					"numinlets" : 1,
					"numoutlets" : 1,
					"outlettype" : [ "" ],
					"parameter_enable" : 0,
					"patching_rect" : [ 209.0, 61.0, 432.0, 22.0 ]
				}

			}
 ],
		"lines" : [ 			{
				"patchline" : 				{
					"destination" : [ "obj-2", 0 ],
					"midpoints" : [ 588.5, 401.0, 246.5, 401.0 ],
					"source" : [ "obj-1", 0 ]
				}

			}
, 			{
				"patchline" : 				{
					"destination" : [ "obj-2", 0 ],
					"midpoints" : [ 334.5, 401.0, 246.5, 401.0 ],
					"source" : [ "obj-101", 0 ]
				}

			}
, 			{
				"patchline" : 				{
					"destination" : [ "obj-2", 0 ],
					"midpoints" : [ 515.5, 401.0, 246.5, 401.0 ],
					"source" : [ "obj-11", 0 ]
				}

			}
, 			{
				"patchline" : 				{
					"destination" : [ "obj-4", 0 ],
					"source" : [ "obj-12", 0 ]
				}

			}
, 			{
				"patchline" : 				{
					"destination" : [ "obj-48", 0 ],
					"midpoints" : [ 1134.5, 286.0, 588.5, 286.0 ],
					"source" : [ "obj-14", 0 ]
				}

			}
, 			{
				"patchline" : 				{
					"destination" : [ "obj-12", 0 ],
					"midpoints" : [ 509.5, 561.0, 218.5, 561.0 ],
					"order" : 1,
					"source" : [ "obj-15", 0 ]
				}

			}
, 			{
				"patchline" : 				{
					"destination" : [ "obj-16", 0 ],
					"midpoints" : [ 509.5, 561.0, 795.5, 561.0 ],
					"order" : 0,
					"source" : [ "obj-15", 0 ]
				}

			}
, 			{
				"patchline" : 				{
					"destination" : [ "obj-18", 0 ],
					"source" : [ "obj-16", 0 ]
				}

			}
, 			{
				"patchline" : 				{
					"destination" : [ "obj-48", 0 ],
					"midpoints" : [ 1165.5, 286.0, 588.5, 286.0 ],
					"source" : [ "obj-17", 0 ]
				}

			}
, 			{
				"patchline" : 				{
					"destination" : [ "obj-5", 1 ],
					"midpoints" : [ 795.5, 672.5, 528.5, 672.5 ],
					"source" : [ "obj-18", 0 ]
				}

			}
, 			{
				"patchline" : 				{
					"destination" : [ "obj-12", 1 ],
					"order" : 2,
					"source" : [ "obj-2", 0 ]
				}

			}
, 			{
				"patchline" : 				{
					"destination" : [ "obj-16", 1 ],
					"midpoints" : [ 939.0, 533.0, 823.5, 533.0 ],
					"order" : 4,
					"source" : [ "obj-2", 1 ]
				}

			}
, 			{
				"patchline" : 				{
					"destination" : [ "obj-19", 0 ],
					"midpoints" : [ 939.0, 512.0, 936.5, 512.0 ],
					"order" : 3,
					"source" : [ "obj-2", 1 ]
				}

			}
, 			{
				"patchline" : 				{
					"destination" : [ "obj-23", 0 ],
					"midpoints" : [ 246.5, 460.0, 288.5, 460.0 ],
					"order" : 0,
					"source" : [ "obj-2", 0 ]
				}

			}
, 			{
				"patchline" : 				{
					"destination" : [ "obj-24", 0 ],
					"midpoints" : [ 939.0, 463.5, 977.5, 463.5 ],
					"order" : 1,
					"source" : [ "obj-2", 1 ]
				}

			}
, 			{
				"patchline" : 				{
					"destination" : [ "obj-25", 0 ],
					"midpoints" : [ 939.0, 467.5, 1150.5, 467.5 ],
					"order" : 0,
					"source" : [ "obj-2", 1 ]
				}

			}
, 			{
				"patchline" : 				{
					"destination" : [ "obj-3", 0 ],
					"midpoints" : [ 246.5, 516.0, 54.5, 516.0 ],
					"order" : 3,
					"source" : [ "obj-2", 0 ]
				}

			}
, 			{
				"patchline" : 				{
					"destination" : [ "obj-62", 0 ],
					"midpoints" : [ 246.5, 469.0, 276.5, 469.0 ],
					"order" : 1,
					"source" : [ "obj-2", 0 ]
				}

			}
, 			{
				"patchline" : 				{
					"destination" : [ "obj-63", 0 ],
					"midpoints" : [ 939.0, 471.5, 964.5, 471.5 ],
					"order" : 2,
					"source" : [ "obj-2", 1 ]
				}

			}
, 			{
				"patchline" : 				{
					"destination" : [ "obj-2", 1 ],
					"midpoints" : [ 246.5, 418.0, 939.0, 418.0 ],
					"order" : 0,
					"source" : [ "obj-20", 0 ]
				}

			}
, 			{
				"patchline" : 				{
					"destination" : [ "obj-2", 0 ],
					"order" : 1,
					"source" : [ "obj-20", 0 ]
				}

			}
, 			{
				"patchline" : 				{
					"destination" : [ "obj-48", 0 ],
					"midpoints" : [ 1197.5, 286.0, 588.5, 286.0 ],
					"source" : [ "obj-21", 0 ]
				}

			}
, 			{
				"patchline" : 				{
					"destination" : [ "obj-2", 0 ],
					"midpoints" : [ 672.5, 401.0, 246.5, 401.0 ],
					"source" : [ "obj-22", 0 ]
				}

			}
, 			{
				"patchline" : 				{
					"destination" : [ "obj-22", 0 ],
					"source" : [ "obj-26", 0 ]
				}

			}
, 			{
				"patchline" : 				{
					"destination" : [ "obj-33", 0 ],
					"source" : [ "obj-27", 0 ]
				}

			}
, 			{
				"patchline" : 				{
					"destination" : [ "obj-2", 1 ],
					"midpoints" : [ 436.25, 262.0, 939.0, 262.0 ],
					"source" : [ "obj-30", 1 ]
				}

			}
, 			{
				"patchline" : 				{
					"destination" : [ "obj-2", 0 ],
					"midpoints" : [ 403.5, 262.0, 246.5, 262.0 ],
					"source" : [ "obj-30", 0 ]
				}

			}
, 			{
				"patchline" : 				{
					"destination" : [ "obj-2", 1 ],
					"midpoints" : [ 590.25, 286.0, 939.0, 286.0 ],
					"source" : [ "obj-32", 1 ]
				}

			}
, 			{
				"patchline" : 				{
					"destination" : [ "obj-2", 0 ],
					"midpoints" : [ 557.5, 262.0, 246.5, 262.0 ],
					"source" : [ "obj-32", 0 ]
				}

			}
, 			{
				"patchline" : 				{
					"destination" : [ "obj-2", 0 ],
					"midpoints" : [ 1057.5, 401.0, 246.5, 401.0 ],
					"source" : [ "obj-33", 0 ]
				}

			}
, 			{
				"patchline" : 				{
					"destination" : [ "obj-2", 1 ],
					"midpoints" : [ 742.25, 286.0, 939.0, 286.0 ],
					"source" : [ "obj-34", 1 ]
				}

			}
, 			{
				"patchline" : 				{
					"destination" : [ "obj-2", 0 ],
					"midpoints" : [ 709.5, 262.0, 246.5, 262.0 ],
					"source" : [ "obj-34", 0 ]
				}

			}
, 			{
				"patchline" : 				{
					"destination" : [ "obj-2", 0 ],
					"midpoints" : [ 984.5, 401.0, 246.5, 401.0 ],
					"source" : [ "obj-35", 0 ]
				}

			}
, 			{
				"patchline" : 				{
					"destination" : [ "obj-2", 1 ],
					"midpoints" : [ 894.25, 418.0, 939.0, 418.0 ],
					"source" : [ "obj-36", 1 ]
				}

			}
, 			{
				"patchline" : 				{
					"destination" : [ "obj-2", 0 ],
					"midpoints" : [ 861.5, 418.0, 246.5, 418.0 ],
					"source" : [ "obj-36", 0 ]
				}

			}
, 			{
				"patchline" : 				{
					"destination" : [ "obj-72", 0 ],
					"source" : [ "obj-38", 0 ]
				}

			}
, 			{
				"patchline" : 				{
					"destination" : [ "obj-5", 0 ],
					"midpoints" : [ 218.5, 673.0, 502.5, 673.0 ],
					"source" : [ "obj-4", 0 ]
				}

			}
, 			{
				"patchline" : 				{
					"destination" : [ "obj-2", 0 ],
					"midpoints" : [ 218.5, 110.0, 215.0, 110.0, 215.0, 416.0, 246.5, 416.0 ],
					"source" : [ "obj-43", 0 ]
				}

			}
, 			{
				"patchline" : 				{
					"destination" : [ "obj-18", 1 ],
					"midpoints" : [ 509.5, 620.0, 855.5, 620.0 ],
					"order" : 0,
					"source" : [ "obj-44", 0 ]
				}

			}
, 			{
				"patchline" : 				{
					"destination" : [ "obj-4", 1 ],
					"midpoints" : [ 509.5, 620.5, 278.5, 620.5 ],
					"order" : 1,
					"source" : [ "obj-44", 0 ]
				}

			}
, 			{
				"patchline" : 				{
					"destination" : [ "obj-20", 0 ],
					"source" : [ "obj-46", 0 ]
				}

			}
, 			{
				"patchline" : 				{
					"destination" : [ "obj-1", 0 ],
					"midpoints" : [ 588.5, 333.5, 588.5, 333.5 ],
					"source" : [ "obj-48", 0 ]
				}

			}
, 			{
				"patchline" : 				{
					"destination" : [ "obj-2", 0 ],
					"midpoints" : [ 763.5, 401.0, 246.5, 401.0 ],
					"source" : [ "obj-50", 0 ]
				}

			}
, 			{
				"patchline" : 				{
					"destination" : [ "obj-70", 0 ],
					"source" : [ "obj-51", 0 ]
				}

			}
, 			{
				"patchline" : 				{
					"destination" : [ "obj-50", 0 ],
					"source" : [ "obj-52", 0 ]
				}

			}
, 			{
				"patchline" : 				{
					"destination" : [ "obj-35", 0 ],
					"source" : [ "obj-53", 0 ]
				}

			}
, 			{
				"patchline" : 				{
					"destination" : [ "obj-51", 0 ],
					"source" : [ "obj-54", 0 ]
				}

			}
, 			{
				"patchline" : 				{
					"destination" : [ "obj-48", 0 ],
					"midpoints" : [ 1071.5, 286.0, 588.5, 286.0 ],
					"source" : [ "obj-55", 0 ]
				}

			}
, 			{
				"patchline" : 				{
					"destination" : [ "obj-2", 0 ],
					"midpoints" : [ 1144.5, 401.0, 246.5, 401.0 ],
					"source" : [ "obj-58", 0 ]
				}

			}
, 			{
				"patchline" : 				{
					"destination" : [ "obj-2", 0 ],
					"midpoints" : [ 229.5, 416.0, 246.5, 416.0 ],
					"source" : [ "obj-6", 0 ]
				}

			}
, 			{
				"patchline" : 				{
					"destination" : [ "obj-58", 0 ],
					"source" : [ "obj-61", 0 ]
				}

			}
, 			{
				"patchline" : 				{
					"destination" : [ "obj-30", 0 ],
					"source" : [ "obj-65", 0 ]
				}

			}
, 			{
				"patchline" : 				{
					"destination" : [ "obj-32", 0 ],
					"source" : [ "obj-66", 0 ]
				}

			}
, 			{
				"patchline" : 				{
					"destination" : [ "obj-34", 0 ],
					"source" : [ "obj-67", 0 ]
				}

			}
, 			{
				"patchline" : 				{
					"destination" : [ "obj-69", 0 ],
					"source" : [ "obj-68", 0 ]
				}

			}
, 			{
				"patchline" : 				{
					"destination" : [ "obj-2", 0 ],
					"midpoints" : [ 1206.5, 401.0, 246.5, 401.0 ],
					"source" : [ "obj-69", 0 ]
				}

			}
, 			{
				"patchline" : 				{
					"destination" : [ "obj-2", 0 ],
					"midpoints" : [ 430.5, 401.0, 246.5, 401.0 ],
					"source" : [ "obj-7", 0 ]
				}

			}
, 			{
				"patchline" : 				{
					"destination" : [ "obj-2", 1 ],
					"midpoints" : [ 82.5, 418.0, 939.0, 418.0 ],
					"order" : 0,
					"source" : [ "obj-70", 0 ]
				}

			}
, 			{
				"patchline" : 				{
					"destination" : [ "obj-2", 0 ],
					"midpoints" : [ 82.5, 342.5, 246.5, 342.5 ],
					"order" : 1,
					"source" : [ "obj-70", 0 ]
				}

			}
, 			{
				"patchline" : 				{
					"destination" : [ "obj-36", 0 ],
					"source" : [ "obj-71", 0 ]
				}

			}
, 			{
				"patchline" : 				{
					"destination" : [ "obj-70", 1 ],
					"source" : [ "obj-72", 0 ]
				}

			}
, 			{
				"patchline" : 				{
					"destination" : [ "obj-48", 0 ],
					"midpoints" : [ 1102.5, 286.0, 588.5, 286.0 ],
					"source" : [ "obj-8", 0 ]
				}

			}
, 			{
				"patchline" : 				{
					"destination" : [ "obj-7", 0 ],
					"source" : [ "obj-87", 0 ]
				}

			}
, 			{
				"patchline" : 				{
					"destination" : [ "obj-11", 0 ],
					"source" : [ "obj-93", 0 ]
				}

			}
, 			{
				"patchline" : 				{
					"destination" : [ "obj-101", 0 ],
					"source" : [ "obj-95", 0 ]
				}

			}
 ],
		"dependency_cache" : [ 			{
				"name" : "cherokee.aif",
				"bootpath" : "C74:/media/msp",
				"type" : "AIFF",
				"implicit" : 1
			}
, 			{
				"name" : "drumLoop.aif",
				"bootpath" : "C74:/media/msp",
				"type" : "AIFF",
				"implicit" : 1
			}
, 			{
				"name" : "eroica.aiff",
				"bootpath" : "C74:/media/legacy-tutorials/msp-tut",
				"type" : "AIFF",
				"implicit" : 1
			}
, 			{
				"name" : "jongly.aif",
				"bootpath" : "C74:/media/msp",
				"type" : "AIFF",
				"implicit" : 1
			}
, 			{
				"name" : "vibes-a1.aif",
				"bootpath" : "C74:/media/msp",
				"type" : "AIFF",
				"implicit" : 1
			}
 ],
		"autosave" : 0
	}

}
